Coordinates
version=1
nRows=22
nColumns=24
inDegrees=yes

Units are S.I. units (second, meters, Newtons, ...)
Angles are in degrees.

endheader
time	pelvis_tilt	pelvis_list	pelvis_rotation	pelvis_tx	pelvis_ty	pelvis_tz	hip_flexion_r	hip_adduction_r	hip_rotation_r	knee_angle_r	ankle_angle_r	subtalar_angle_r	mtp_angle_r	hip_flexion_l	hip_adduction_l	hip_rotation_l	knee_angle_l	ankle_angle_l	subtalar_angle_l	mtp_angle_l	lumbar_extension	lumbar_bending	lumbar_rotation
      2.60000000	    -11.34643388	      7.02345244	     -5.68828291	     -2.57979769	     -0.05635452	      0.50273740	     15.00310843	     -8.60790448	      0.58416477	    -61.51585000	    -28.48861307	     13.60470366	     22.13359849	     36.61337337	     10.51627685	     -0.48887101	    -31.20156761	     -1.15694868	     10.03978259	     13.11376695	      8.97406346	     -6.43929591	     10.41224181
      2.60500000	    -11.10291769	      7.31189003	     -5.54571794	     -2.57236501	     -0.05521567	      0.50212989	     15.75311526	     -8.91124711	      0.74192377	    -62.63582992	    -27.59294813	     12.82299974	     22.76275630	     35.65449798	     11.03852436	     -0.40042554	    -30.83955625	     -0.67256327	     10.03184284	     13.05207402	      8.74076080	     -6.77244000	     10.14482445
      2.61000000	    -10.96405921	      7.52884415	     -5.36389074	     -2.56490636	     -0.05412436	      0.50150374	     16.60370633	     -9.12304091	      0.84302229	    -63.68190853	    -26.62614653	     11.99286253	     23.22135792	     34.78543996	     11.49390371	     -0.22679366	    -30.46747306	     -0.20810794	     10.08523708	     13.11324804	      8.62643260	     -7.02331892	      9.84982361
      2.61500000	    -10.66319396	      7.78284719	     -5.32891918	     -2.55733471	     -0.05269442	      0.50104572	     17.29804166	     -9.33669346	      1.08546647	    -64.58869572	    -25.73456775	     11.07612574	     23.79390290	     33.67788237	     11.93274528	     -0.15645850	    -29.97696657	      0.21844752	     10.02567310	     12.90193745	      8.37101358	     -7.29623469	      9.65738954
      2.62000000	    -10.39528756	      7.96759680	     -5.25697178	     -2.54981176	     -0.05127276	      0.50056173	     18.01199144	     -9.46784830	      1.29686947	    -65.41302841	    -24.75983376	     10.31598020	     24.33413124	     32.59828892	     12.31750091	      0.01209275	    -29.50165491	      0.66458622	     10.07770372	     12.74958489	      8.13141258	     -7.49877626	      9.45641798
      2.62500000	    -10.25281417	      8.08523933	     -5.13727213	     -2.54227916	     -0.04995807	      0.50004854	     18.84468474	     -9.51302264	      1.45607220	    -66.16509896	    -23.74638244	      9.61411439	     24.71005414	     31.64068677	     12.63456382	      0.23855460	    -29.02031446	      1.06192439	     10.15024087	     12.77674206	      8.03358520	     -7.62304736	      9.21761188
      2.63000000	     -9.89979227	      8.20123179	     -5.11948399	     -2.53469460	     -0.04830241	      0.49966678	     19.44081223	     -9.53161399	      1.70543068	    -66.77892847	    -22.76195604	      8.96276950	     25.09388210	     30.40576188	     12.93311765	      0.41976343	    -28.44912754	      1.41383899	     10.12686804	     12.57433294	      7.71599098	     -7.75004449	      9.02546513
      2.63500000	     -9.65833928	      8.23383659	     -5.02408124	     -2.52718337	     -0.04677156	      0.49921221	     20.13231464	     -9.46110243	      1.87072406	    -67.31822653	    -21.78570315	      8.39196350	     25.40652077	     29.29380705	     13.16869261	      0.72199862	    -27.91362193	      1.76318530	     10.15225308	     12.45212579	      7.49927295	     -7.79088239	      8.77723480
      2.64000000	     -9.47417745	      8.22923675	     -4.89989451	     -2.51973139	     -0.04529299	      0.49875652	     20.87562706	     -9.33974053	      2.00821972	    -67.77873540	    -20.85448806	      7.86193279	     25.66012776	     28.24035904	     13.36324864	      1.06347565	    -27.37577737	      2.06530734	     10.18498293	     12.38655472	      7.33619788	     -7.79532002	      8.47555965
      2.64500000	     -9.24590818	      8.14230090	     -4.74143648	     -2.51232764	     -0.04374621	      0.49823795	     21.52943376	     -9.14622633	      2.07800853	    -68.12842076	    -19.93246128	      7.40873678	     25.87026781	     27.12491568	     13.50322245	      1.50455547	    -26.84233766	      2.34674684	     10.13824161	     12.26613862	      7.10349844	     -7.71763189	      8.15970691
      2.65000000	     -9.06616250	      8.00884896	     -4.54880583	     -2.50500412	     -0.04225903	      0.49769964	     22.21919407	     -8.90207484	      2.10583968	    -68.39680387	    -19.05720934	      7.00240039	     26.04583236	     26.06342847	     13.59565665	      1.99359371	    -26.31972796	      2.60536784	     10.07724725	     12.15087710	      6.90672124	     -7.58830979	      7.81093630
      2.65500000	     -8.91609947	      7.82980340	     -4.30138376	     -2.49772470	     -0.04079229	      0.49711614	     22.90936891	     -8.62258492	      2.07318223	    -68.57000728	    -18.23984589	      6.65309955	     26.20077697	     25.02568425	     13.65183942	      2.55970396	    -25.79845690	      2.83470862	     10.01323573	     12.03464906	      6.73059832	     -7.42287200	      7.39483413
      2.66000000	     -8.77563369	      7.60172452	     -4.01213857	     -2.49052711	     -0.03935565	      0.49647633	     23.58374453	     -8.31027418	      1.97835589	    -68.65413533	    -17.45686939	      6.34871160	     26.33333839	     24.00067315	     13.66809326	      3.19187381	    -25.29199089	      3.04419148	      9.89637595	     11.89157747	      6.54518860	     -7.20864193	      6.93406293
      2.66500000	     -8.64812619	      7.33894497	     -3.67947501	     -2.48339824	     -0.03795737	      0.49577872	     24.24852369	     -7.98552517	      1.82257609	    -68.65273792	    -16.71259728	      6.08758369	     26.44581341	     22.99117114	     13.65544680	      3.88482767	    -24.79483703	      3.23405319	      9.74446234	     11.72386358	      6.36127884	     -6.96308560	      6.41970219
      2.67000000	     -8.54282682	      7.04278989	     -3.30246787	     -2.47630786	     -0.03659111	      0.49504159	     24.90848777	     -7.64791345	      1.61247991	    -68.55807892	    -16.01730947	      5.87335950	     26.54170385	     22.00116341	     13.60827949	      4.63311180	    -24.29701027	      3.40577780	      9.58066762	     11.54092720	      6.19345303	     -6.68728737	      5.86877981
      2.67500000	     -8.41973064	      6.75029596	     -2.89240579	     -2.46926070	     -0.03526324	      0.49423510	     25.53223863	     -7.35094977	      1.34840210	    -68.38963597	    -15.33410818	      5.67837526	     26.59466274	     20.98721028	     13.57464042	      5.45463524	    -23.79157591	      3.54932704	      9.32598070	     11.27468072	      5.99997396	     -6.42017855	      5.28432370
      2.68000000	     -8.34157450	      6.39558092	     -2.44748249	     -2.46227974	     -0.03399639	      0.49340936	     26.17658324	     -6.99913395	      1.04880910	    -68.12649468	    -14.71364001	      5.54890625	     26.65626709	     20.03545183	     13.45752238	      6.27483659	    -23.31076819	      3.72108872	      9.13827178	     11.07651529	      5.84525469	     -6.08872618	      4.63219616
      2.68500000	     -8.25926310	      6.03795402	     -1.97632049	     -2.45528079	     -0.03274381	      0.49254131	     26.78808519	     -6.67450491	      0.71046031	    -67.77150939	    -14.12608003	      5.44027543	     26.68799673	     19.06612113	     13.33137954	      7.14033313	    -22.80621222	      3.86231818	      8.91283313	     10.82413885	      5.69456558	     -5.75891227	      3.97479297
      2.69000000	     -8.18156996	      5.67501222	     -1.50446157	     -2.44826652	     -0.03152611	      0.49168171	     27.38522561	     -6.35875922	      0.36000531	    -67.33416033	    -13.57269933	      5.36494824	     26.69297279	     18.09783833	     13.17703231	      8.00545002	    -22.28817406	      3.99546452	      8.69255805	     10.55703413	      5.55971321	     -5.41947298	      3.32726544
      2.69500000	     -8.07730313	      5.33536943	     -1.03047621	     -2.44126837	     -0.03038078	      0.49079443	     27.94408807	     -6.09037015	     -0.00062316	    -66.83725528	    -13.02053743	      5.29718544	     26.64932862	     17.09961822	     13.03617322	      8.88558427	    -21.75853063	      4.14351452	      8.41145573	     10.23577367	      5.39606284	     -5.10798220	      2.64114074
      2.70000000	     -7.95763874	      5.00343310	     -0.59801511	     -2.43419099	     -0.02922812	      0.48994536	     28.46518110	     -5.82078697	     -0.32194282	    -66.25717563	    -12.48463498	      5.28331394	     26.49270391	     16.06224397	     12.87178614	      9.75812372	    -21.18464957	      4.27017198	      8.08964991	      9.80696734	      5.24113649	     -4.79468745	      2.05029526
      2.70500000	     -7.88651777	      4.65031004	     -0.13342867	     -2.42714281	     -0.02818470	      0.48911109	     29.01241220	     -5.55033576	     -0.67890228	    -65.59117848	    -12.00002050	      5.26898476	     26.42038876	     15.10692466	     12.64870328	     10.52901536	    -20.63682405	      4.45038391	      7.96279013	      9.57167756	      5.13594823	     -4.47208121	      1.37508801
